HIERARCHY
ROOT hip
{
  OFFSET 0 0 0
  CHANNELS 6 Xposition Yposition Zposition Zrotation Yrotation Xrotation
  JOINT abdomen
  {
    OFFSET 0 20.6881 -0.73152
    CHANNELS 3 Zrotation Xrotation Yrotation
    JOINT chest
    {
      OFFSET 0 11.7043 -0.48768
      CHANNELS 3 Zrotation Xrotation Yrotation
      JOINT neck
      {
        OFFSET 0 22.1894 -2.19456
        CHANNELS 3 Zrotation Xrotation Yrotation
        JOINT head
        {
          OFFSET -0.24384 7.07133 1.2192
          CHANNELS 3 Zrotation Xrotation Yrotation
          JOINT leftEye
          {
            OFFSET 4.14528 8.04674 8.04672
            CHANNELS 3 Zrotation Xrotation Yrotation
            End Site
            {
              OFFSET 1 0 0
            }
          }
          JOINT rightEye
          {
            OFFSET -3.6576 8.04674 8.04672
            CHANNELS 3 Zrotation Xrotation Yrotation
            End Site
            {
              OFFSET 1 0 0
            }
          }
        }
      }
      JOINT rCollar
      {
        OFFSET -2.68224 19.2634 -4.8768
        CHANNELS 3 Zrotation Xrotation Yrotation
        JOINT rShldr
        {
          OFFSET -8.77824 -1.95073 1.46304
          CHANNELS 3 Zrotation Xrotation Yrotation
          JOINT rForeArm
          {
            OFFSET -28.1742 -1.7115 0.48768
            CHANNELS 3 Zrotation Xrotation Yrotation
            JOINT rHand
            {
              OFFSET -22.5879 0.773209 7.07136
              CHANNELS 3 Zrotation Xrotation Yrotation
              JOINT rThumb1
              {
                OFFSET -1.2192 -0.487915 3.41376
                CHANNELS 3 Zrotation Xrotation Yrotation
                JOINT rThumb2
                {
                  OFFSET -3.37035 -0.52449 3.41376
                  CHANNELS 3 Zrotation Xrotation Yrotation
                  End Site
                  {
                    OFFSET -1.78271 -1.18214 1.43049
                  }
                }
              }
              JOINT rIndex1
              {
                OFFSET -7.75947 0.938293 5.60832
                CHANNELS 3 Zrotation Xrotation Yrotation
                JOINT rIndex2
                {
                  OFFSET -2.54057 -0.884171 1.56538
                  CHANNELS 3 Zrotation Xrotation Yrotation
                  End Site
                  {
                    OFFSET -1.62519 -0.234802 1.16502
                  }
                }
              }
              JOINT rMid1
              {
                OFFSET -8.24714 1.18213 3.41376
                CHANNELS 3 Zrotation Xrotation Yrotation
                JOINT rMid2
                {
                  OFFSET -3.10165 -0.590103 1.0647
                  CHANNELS 3 Zrotation Xrotation Yrotation
                  End Site
                  {
                    OFFSET -2.48547 -0.328903 0.83742
                  }
                }
              }
              JOINT rRing1
              {
                OFFSET -8.82822 0.546677 1.51678
                CHANNELS 3 Zrotation Xrotation Yrotation
                JOINT rRing2
                {
                  OFFSET -2.60934 -0.819778 -0.0198488
                  CHANNELS 3 Zrotation Xrotation Yrotation
                  End Site
                  {
                    OFFSET -2.33842 -0.294052 0.168128
                  }
                }
              }
              JOINT rPinky1
              {
                OFFSET -8.27202 -0.0477905 -0.4584
                CHANNELS 3 Zrotation Xrotation Yrotation
                JOINT rPinky2
                {
                  OFFSET -1.82734 -0.647385 -0.700984
                  CHANNELS 3 Zrotation Xrotation Yrotation
                  End Site
                  {
                    OFFSET -1.69225 -0.51767 -0.607171
                  }
                }
              }
            }
          }
        }
      }
      JOINT lCollar
      {
        OFFSET 2.68224 19.2634 -4.8768
        CHANNELS 3 Zrotation Xrotation Yrotation
        JOINT lShldr
        {
          OFFSET 8.77824 -1.95073 1.46304
          CHANNELS 3 Zrotation Xrotation Yrotation
          JOINT lForeArm
          {
            OFFSET 28.1742 -1.7115 0.48768
            CHANNELS 3 Zrotation Xrotation Yrotation
            JOINT lHand
            {
              OFFSET 22.5879 0.773209 7.07136
              CHANNELS 3 Zrotation Xrotation Yrotation
              JOINT lThumb1
              {
                OFFSET 1.2192 -0.487915 3.41376
                CHANNELS 3 Zrotation Xrotation Yrotation
                JOINT lThumb2
                {
                  OFFSET 3.37035 -0.52449 3.41376
                  CHANNELS 3 Zrotation Xrotation Yrotation
                  End Site
                  {
                    OFFSET 1.78271 -1.18214 1.43049
                  }
                }
              }
              JOINT lIndex1
              {
                OFFSET 7.75947 0.938293 5.60832
                CHANNELS 3 Zrotation Xrotation Yrotation
                JOINT lIndex2
                {
                  OFFSET 2.54057 -0.884171 1.56538
                  CHANNELS 3 Zrotation Xrotation Yrotation
                  End Site
                  {
                    OFFSET 1.62519 -0.234802 1.16502
                  }
                }
              }
              JOINT lMid1
              {
                OFFSET 8.24714 1.18213 3.41376
                CHANNELS 3 Zrotation Xrotation Yrotation
                JOINT lMid2
                {
                  OFFSET 3.10165 -0.590103 1.0647
                  CHANNELS 3 Zrotation Xrotation Yrotation
                  End Site
                  {
                    OFFSET 2.48547 -0.328903 0.83742
                  }
                }
              }
              JOINT lRing1
              {
                OFFSET 8.82822 0.546677 1.51678
                CHANNELS 3 Zrotation Xrotation Yrotation
                JOINT lRing2
                {
                  OFFSET 2.60934 -0.819778 -0.0198488
                  CHANNELS 3 Zrotation Xrotation Yrotation
                  End Site
                  {
                    OFFSET 2.33842 -0.294052 0.168128
                  }
                }
              }
              JOINT lPinky1
              {
                OFFSET 8.27202 -0.0477905 -0.4584
                CHANNELS 3 Zrotation Xrotation Yrotation
                JOINT lPinky2
                {
                  OFFSET 1.82734 -0.647385 -0.700984
                  CHANNELS 3 Zrotation Xrotation Yrotation
                  End Site
                  {
                    OFFSET 1.69225 -0.51767 -0.607171
                  }
                }
              }
            }
          }
        }
      }
    }
  }
  JOINT rButtock
  {
    OFFSET -8.77824 4.35084 1.2192
    CHANNELS 3 Zrotation Xrotation Yrotation
    JOINT rThigh
    {
      OFFSET 0 -1.70687 -2.19456
      CHANNELS 3 Zrotation Xrotation Yrotation
      JOINT rShin
      {
        OFFSET 0 -36.8199 0.73152
        CHANNELS 3 Zrotation Xrotation Yrotation
        JOINT rFoot
        {
          OFFSET 0.73152 -45.1104 -5.12064
          CHANNELS 3 Zrotation Xrotation Yrotation
          End Site
          {
            OFFSET -1.1221 -3.69964 12.103
          }
        }
      }
    }
  }
  JOINT lButtock
  {
    OFFSET 8.77824 4.35084 1.2192
    CHANNELS 3 Zrotation Xrotation Yrotation
    JOINT lThigh
    {
      OFFSET 0 -1.70687 -2.19456
      CHANNELS 3 Zrotation Xrotation Yrotation
      JOINT lShin
      {
        OFFSET 0 -36.8199 0.73152
        CHANNELS 3 Zrotation Xrotation Yrotation
        JOINT lFoot
        {
          OFFSET -0.73152 -45.1104 -5.12064
          CHANNELS 3 Zrotation Xrotation Yrotation
          End Site
          {
            OFFSET 1.1221 -3.69964 12.103
          }
        }
      }
    }
  }
}
MOTION
Frames:	8
Frame Time:	0.00833333
0.0 0.0 0.0 0.0 0.0 0.0 0.0 0.0 0.0 0.0 0.0 0.0 0.0 0.0 0.0 0.0 0.0 0.0 0.0 0.0 0.0 0.0 0.0 0.0 0.0 0.0 0.0 0.0 0.0 0.0 0.0 0.0 0.0 0.0 0.0 0.0 0.0 0.0 0.0 0.0 0.0 0.0 0.0 0.0 0.0 0.0 0.0 0.0 0.0 0.0 0.0 0.0 0.0 0.0 0.0 0.0 0.0 0.0 0.0 0.0 0.0 0.0 0.0 0.0 0.0 0.0 0.0 0.0 0.0 0.0 0.0 0.0 0.0 0.0 0.0 0.0 0.0 0.0 0.0 0.0 0.0 0.0 0.0 0.0 0.0 0.0 0.0 0.0 0.0 0.0 0.0 0.0 0.0 0.0 0.0 0.0 0.0 0.0 0.0 0.0 0.0 0.0 0.0 0.0 0.0 0.0 0.0 0.0 0.0 0.0 0.0 0.0 0.0 0.0 0.0 0.0 0.0 0.0 0.0 0.0 0.0 0.0 0.0 0.0 0.0 0.0 0.0 0.0 0.0 0.0 0.0 0.0
86.968 57.953900000000004 -35.4422 -176.977015 -0.543413 -173.326918 -0.166181 -0.854288 -11.008471 -0.46285 -3.169258 11.201071 -6.146276 18.545066 -128.938635 10.890905 17.815003 121.997247 -0.000963 0.0 -0.002427 0.004576 0.0 0.00342 3.342684 -27.666939 -5.408369 89.268207 -86.284203 82.268522 -129.864126 -17.146127 155.33474 46.543815 -64.760493 33.434008 -0.544539 0.535948 0.086283 -138.867384 -43.04249 119.020236 -6.667421 9.979715 4.147129 -177.37329 -32.533475 107.013795 -173.039606 -44.087761 144.928735 -11.734249 33.300014 9.457699 -0.000228 -0.060926 -0.018592 11.046781 -12.236642 -1.534904 -0.562826 -1.446682 -0.520647 -159.483308 55.559094 -150.08248 0.048952 0.292341 -0.065543 -88.425021 -87.844101 -82.297941 -4.029403 54.026248 -34.50508 12.7232 33.466743 -2.415552 90.496187 38.312711 -51.260748 2.351756 -16.519266 -26.374134 8.571131 12.509041 -5.450018 -96.229498 -61.435153 -44.432577 89.835728 60.704252 -81.263167 -80.822423 -77.802269 -52.174832 145.107191 3.760457 -179.690713 55.574162 87.575737 -68.486623 -6.230639 18.789368 -5.571398 129.064952 -29.15681 127.009944 -0.000729 -0.000419 -0.0 -1.447065 -14.903326 -58.43192 -27.006104 20.248306 -92.820011 89.902558 -25.678807 -174.957718 0.00244 0.000649 0.00244 1.706508 -19.998146 -180.0 9.439793 -27.560407 160.836661 -103.570244 -55.847084 -4.617272
87.019 57.809200000000004 -35.4709 -176.853919 -0.678118 -173.289003 -0.047003 -1.660816 -1.621329 -0.787662 -6.331584 2.070514 -11.517041 11.980419 -78.57693 16.619765 10.173571 65.055907 0.00536 -0.0 -0.000774 -0.00059 0.0 -0.00155 -9.65162 34.836231 11.198977 15.762635 -44.039123 6.690847 164.32718 9.38279 77.794205 172.833151 -9.358444 144.764101 -0.44137 0.435354 0.069723 -42.207812 27.258988 38.132973 -138.493001 4.896368 114.865099 -75.070456 57.047971 55.724484 173.12159 -66.297487 137.613936 -4.997141 20.723724 4.539795 0.004407 1.771243 0.557426 10.184469 0.073461 -0.058796 15.506175 54.138304 12.137877 -25.343856 -40.981394 -25.316021 151.250168 17.631056 -156.522529 159.15639 -1.202578 -173.431389 6.543486 6.951648 -73.310444 5.800043 11.589454 0.640647 171.705692 -9.388476 -89.949595 4.868899 -51.446817 -6.492573 153.453951 -21.067633 -121.744264 -82.677221 -69.208374 -30.534813 160.674703 -6.667675 -143.24485 34.798315 54.914864 -29.484722 74.841829 72.960615 -92.828133 3.340237 -62.272316 18.860718 45.216693 -48.152726 43.99177 125.882318 -30.990986 124.98209 -179.979548 75.748733 -0.013993 165.630667 46.892244 -160.663718 -38.194637 -36.170928 -154.506605 -92.208269 64.903534 4.858268 0.006778 -0.000158 0.003389 10.702168 -29.000002 -25.000008 -40.487795 33.827083 95.523258 -23.675558 -5.09912 -36.219218
87.047 57.6761 -35.510000000000005 -176.837066 -0.793369 -173.275904 0.34461 -7.194417 -180.0 1.119336 4.429784 -179.22292 -12.669849 15.213361 -91.946222 18.392031 15.243879 71.645874 0.000577 0.0 1.1e-05 0.000577 0.0 1.1e-05 -80.166322 68.37145 83.26086 -166.39438 -1.87994 166.937131 -126.915134 77.216793 -133.676106 -4.715635 16.109233 0.270535 -164.698128 -2.372172 89.58484 -46.7469 -16.364033 12.443634 -166.822488 -43.973971 122.060137 -161.564353 -21.40428 119.027499 78.536753 -80.919387 49.688139 -156.109779 15.586515 139.704668 -145.118837 0.267958 -179.212042 -16.098142 -68.330206 -37.225441 -145.542116 13.24495 -142.149126 -24.203734 -39.109554 -25.593097 14.148274 43.061525 -15.996683 5.362309 30.966845 -12.557962 78.519794 -58.284306 -22.060026 -3.656735 -21.034506 0.619321 93.743366 37.963593 -53.548738 140.111197 -23.506109 -78.530102 44.140507 38.975071 -34.492885 67.687038 50.083585 -48.036004 36.034815 51.723869 -29.831029 -3.330265 0.217385 -0.098233 -0.000248 0.022523 -0.007756 -9.08683 14.086088 -1.868377 14.914391 -27.547161 14.219445 166.412355 71.693831 148.034299 -0.004778 -0.0006 -0.002389 -23.374254 -31.190781 -39.846729 36.362673 71.834153 89.730865 17.568316 56.813919 -138.314077 179.971576 75.750158 0.023387 -158.898336 33.329869 144.918475 65.458674 -38.466232 -136.522783 -98.402671 -50.031278 -16.84774
87.06700000000001 57.55050000000001 -35.5483 -176.903986 -0.886428 -173.271022 0.66775 -7.737853 -180.0 1.242606 6.447333 -179.031171 -12.657837 8.717875 -50.384307 19.41776 2.937613 26.756754 0.000136 -0.0 -0.00038 0.000136 -0.0 -0.00038 -142.972962 39.431116 147.388968 -0.699428 15.54122 9.996169 49.328964 10.509687 -174.997263 -172.611266 34.267453 143.333869 -166.508627 -4.18029 89.761259 131.070235 -52.746612 90.302905 -108.426959 34.16064 91.742972 -88.24426 53.756471 65.225054 -154.142187 11.634784 139.429503 -163.441614 -5.446325 143.047243 -72.350938 72.975648 90.217642 4.846071 -26.349298 -8.084728 -141.162867 0.470558 -138.190822 -147.111342 11.077727 -141.57965 157.2748 -17.046233 -164.526146 -15.263561 7.703191 -0.702938 172.845189 -14.957161 68.388445 7.237962 10.403604 1.019712 -175.879698 -21.257342 -88.492314 93.173979 17.740739 -36.011968 -88.792438 -75.498724 -40.050372 -179.882422 -47.653361 -107.457025 160.67346 -6.668028 -143.244321 -5.200049 -5.86444 0.31538 0.015635 -1.323401 0.414231 -9.198314 14.090001 -1.865885 -19.441646 67.282885 -13.10008 -41.663171 81.427831 5.906731 -179.954356 75.750626 -0.037556 144.922831 33.090864 0.0 60.41975 78.996776 -118.154911 -110.26085 -57.578231 -24.731347 0.000763 0.000156 0.0 34.110839 -38.747215 0.0 -90.791939 47.307161 -179.689456 -37.650653 18.23042 -84.204159
87.099 57.4237 -35.5807 -176.85886 -1.009771 -173.243938 0.788642 -7.975228 -180.0 1.252778 7.236212 -178.950426 5.014563 8.912128 72.787341 -14.043647 -0.97481 -98.383564 0.00238 -0.0 -0.002951 -0.001749 -0.0 0.005656 -14.148226 43.0616 15.996351 14.753255 -18.780674 16.06116 -8.749198 11.830526 114.897125 -4.870171 16.859355 0.335298 -78.493628 38.702372 42.741005 113.371231 -54.960497 46.265936 -14.229 19.20328 9.559799 15.853351 -9.590442 -1.598194 -145.287764 29.524264 132.692248 -150.444057 26.887743 136.078225 -0.002028 -0.060834 -0.01915 3.159194 45.21158 8.977421 0.464606 1.226286 0.430463 -8.716579 -23.953066 -10.075509 85.537524 68.182381 -88.688883 167.358112 48.505775 -167.822548 175.475445 -6.894127 66.15553 9.442078 15.999361 0.391114 -6.463888 -6.452583 0.636209 0.589462 -1.486498 3.996243 -10.21083 -18.050876 4.56362 1.394466 19.716813 -4.476166 160.825513 -7.141648 -143.317379 -2.655896 1.633088 -0.585173 0.020171 -1.645179 0.518319 61.225611 -86.802366 82.909407 1.203509 -3.047436 1.116661 146.925063 10.525279 143.421316 179.998518 75.750412 0.001529 140.234819 28.880924 128.256076 103.591463 -59.085428 33.138589 77.920678 78.902976 171.099532 179.9989 75.747585 0.001135 -147.855396 25.578191 -14.556276 -96.882887 57.362568 9.575807 179.081963 23.41156 -85.200749
87.13300000000001 57.297200000000004 -35.618300000000005 -176.790959 -1.126005 -173.257048 0.440504 -3.242961 7.739607 -2.503795 -11.666603 -6.973945 4.362979 7.773294 65.50611 -12.479295 -2.754203 -91.012121 -0.004661 -0.0 0.000576 0.000918 -0.0 -0.000678 -82.877129 68.300766 86.000677 24.516922 -57.739316 21.615616 -9.228407 5.655824 113.459379 -4.462873 15.528764 0.261927 -95.361174 37.750533 54.682425 -24.653119 -9.477252 33.292954 -151.353679 -17.158177 121.133311 -11.748095 35.916863 2.820064 173.125946 -66.298034 137.616693 2.650444 1.143142 0.411402 -114.667484 66.7312 135.091763 -159.686181 0.382488 177.452829 -138.443707 -6.231264 -135.661335 -84.817575 -52.043793 -84.559839 80.16596 68.371375 -83.260977 161.65982 60.565597 -162.088006 -9.734979 10.329348 149.954178 -177.965037 -7.202334 -143.618317 85.829477 38.631249 -47.955375 50.508826 -1.475558 -46.339667 1.396723 2.232055 -0.805875 -7.245581 5.761021 -0.502113 36.035608 51.723597 -29.831292 169.75489 -25.11781 -144.215005 145.100526 -1.521063 178.650068 66.707338 87.683397 -80.096875 138.441318 -6.229573 135.659357 80.420328 -52.620715 80.292817 -179.973694 75.74973 -0.021644 140.191799 29.642402 94.877083 93.696169 -13.341796 -162.622103 -123.755661 -73.490464 -44.691364 0.00512 -1.2e-05 0.00256 38.676194 -41.548826 -180.0 105.999335 -37.156045 76.307222 -172.619731 -13.345021 151.417794
87.166 57.1685 -35.64 -176.800936 -1.205333 -173.201051 -0.2631 -7.731981 156.723329 -2.579568 6.401808 -155.677839 -10.24054 21.169171 -129.150318 12.790433 25.331103 103.899789 -0.00018 -0.0 0.001492 -0.00018 -0.0 0.001492 -130.419989 54.549318 134.287988 -164.891391 24.517075 164.512889 16.664567 -58.573753 -132.431696 169.759801 -17.881362 143.770583 -176.599217 -14.212735 89.691283 120.403243 -63.319131 89.841875 -64.08645 43.041099 52.300617 -164.784397 -11.000097 113.198857 -0.219134 0.638542 0.122697 -179.656029 -48.712468 141.479494 -0.015474 -1.323227 -0.415367 -155.321366 -1.335266 172.012075 -145.368987 12.683969 -141.992948 -156.482754 39.521061 -146.233227 0.049176 0.292336 -0.065425 138.774518 51.94675 -141.439479 -50.602283 -5.563879 -157.193689 104.709023 70.275158 -83.092328 -6.463357 -6.452801 0.635 -172.511428 -83.968442 -100.314284 9.376785 13.535593 -6.013213 5.019343 19.295327 -4.83993 108.91002 57.216982 -99.527822 -10.115406 -20.312386 1.30122 0.020942 -1.726086 0.542234 156.209378 -46.245135 -177.554435 111.057968 -41.15806 109.115724 24.494929 -40.697136 26.553009 -0.0 0.000861 0.000146 -37.012569 -31.676605 -22.277195 92.008525 46.946324 15.82142 -105.15066 -49.330092 -165.969406 -0.000278 0.000861 -6.9e-05 36.195099 -39.178699 0.0 -91.614255 32.527462 0.338181 177.937858 -27.126705 -106.362666
